<svg xmlns="http://www.w3.org/2000/svg" xmlns:svg="http://www.w3.org/2000/svg" viewBox="0 0 64 80" version="1.1" x="0px" y="0px"><g transform="translate(-864,-480)"><path style="color:#000000;" d="m 874,488 c -1.0907,0 -2,0.9093 -2,2 v 44 c 0,1.0907 0.9093,2 2,2 h 44 c 1.0907,0 2,-0.9093 2,-2 v -44 c 0,-1.0907 -0.9093,-2 -2,-2 z m 0,2 h 44 v 44 h -44 z" fill="#000000" fill-rule="evenodd" stroke-linecap="round" stroke-linejoin="round" stroke-miterlimit="3.3"/><path style="color:#000000;" d="m 896,492 c -11.03384,0 -20,8.96616 -20,20 0,11.03384 8.96616,20 20,20 11.03384,0 20,-8.96616 20,-20 0,-11.03384 -8.96616,-20 -20,-20 z m 0,2 c 9.95296,0 18,8.04704 18,18 0,9.95296 -8.04704,18 -18,18 -9.95296,0 -18,-8.04704 -18,-18 0,-9.95296 8.04704,-18 18,-18 z" fill="#000000" fill-rule="evenodd" stroke-linecap="round" stroke-linejoin="round" stroke-miterlimit="3.3"/><path style="color:#000000;" d="m 896,506 c -3.30186,0 -6,2.69814 -6,6 0,3.30186 2.69814,6 6,6 3.30186,0 6,-2.69814 6,-6 0,-3.30186 -2.69814,-6 -6,-6 z m 0,2 c 2.22098,0 4,1.77902 4,4 0,2.22098 -1.77902,4 -4,4 -2.22098,0 -4,-1.77902 -4,-4 0,-2.22098 1.77902,-4 4,-4 z" fill="#000000" fill-rule="evenodd" stroke-linecap="round" stroke-linejoin="round" stroke-miterlimit="3.3"/><path style="color:#000000;" d="m 891.6582,498.6875 c -3.95563,1.28925 -7.13361,4.28622 -8.66601,8.125 a 1,1 0 0 0 0.55859,1.29883 1,1 0 0 0 1.29883,-0.5586 c 1.3121,-3.28691 4.04137,-5.86113 7.42773,-6.96484 a 1,1 0 0 0 0.64063,-1.25977 1,1 0 0 0 -1.25977,-0.64062 z" fill="#000000" fill-rule="evenodd" stroke-linecap="round" stroke-linejoin="round" stroke-miterlimit="3.3"/></g></svg>