<svg xmlns="http://www.w3.org/2000/svg" xmlns:svg="http://www.w3.org/2000/svg" viewBox="0 0 64 80" version="1.1" x="0px" y="0px"><g transform="translate(-864,-192)"><path style="color:#000000;" d="m 910.2168,200 c -2.50735,0 -5.01468,0.95413 -6.92188,2.86133 -2.10536,2.10536 -3.04725,4.94083 -2.82812,7.70117 l -18.20118,21.00195 c -0.34303,0.39643 -0.3217,0.99048 0.0488,1.36133 l 1.45313,1.45313 c -1.84347,1.05567 -3.63401,2.10614 -5.06055,3.10547 -0.85979,0.6023 -1.58906,1.1811 -2.14062,1.7832 -0.55157,0.6021 -1.0206,1.27546 -0.9336,2.1582 0.087,0.88265 0.70649,1.42453 1.29297,1.8086 0.58648,0.38407 1.25249,0.66636 1.89453,0.91796 0.33026,0.12943 0.57092,0.22272 0.86524,0.33399 -0.28957,0.0896 -0.46129,0.16832 -0.82617,0.26172 -1.59894,0.40925 -3.82062,0.83861 -6.04883,1.26953 -0.54275,0.10437 -0.89791,0.62923 -0.79297,1.17187 0.10437,0.54275 0.62923,0.89791 1.17187,0.79297 2.22823,-0.43092 4.46272,-0.86141 6.16407,-1.29687 0.85066,-0.21773 1.56296,-0.43053 2.1289,-0.68164 0.28297,-0.12556 0.53026,-0.2508 0.7793,-0.47071 0.24904,-0.21991 0.57941,-0.70028 0.46289,-1.25586 -0.11652,-0.55561 -0.44239,-0.759 -0.68164,-0.91992 -0.23925,-0.16092 -0.48273,-0.27596 -0.74805,-0.39062 -0.53064,-0.22933 -1.14798,-0.44411 -1.74414,-0.67774 -0.59615,-0.23362 -1.1673,-0.4895 -1.5293,-0.72656 -0.2654,-0.17381 -0.35665,-0.30463 -0.38476,-0.33789 -0.007,0.0143 -0.0104,0.0178 -0.0117,0.004 -0.002,-0.0172 10e-4,-0.016 0.0117,-0.004 0.0246,-0.0524 0.10574,-0.27958 0.4043,-0.60547 0.38029,-0.41514 1.01723,-0.93898 1.8125,-1.49609 1.43213,-1.00326 3.37788,-2.13312 5.38086,-3.27735 l 1.83984,1.83985 c 0.37085,0.37056 0.9649,0.39189 1.36133,0.0488 l 21.0039,-18.20313 c 2.75933,0.21814 5.59468,-0.72163 7.69922,-2.82617 3.81441,-3.81441 3.81441,-10.02935 0,-13.84375 C 915.2315,200.95416 912.72414,200 910.2168,200 Z m 0,1.98828 c 1.99131,0 3.98275,0.76206 5.50781,2.28711 3.05012,3.05012 3.05011,7.96552 0,11.01563 -3.05011,3.05009 -7.96357,3.0482 -11.01367,-0.002 -3.05011,-3.0501 -3.05201,-7.96356 -0.002,-11.01367 1.52506,-1.52505 3.5165,-2.28711 5.50782,-2.28711 z m -9.23438,11.0332 c 0.46951,1.34562 1.2397,2.60885 2.3125,3.68164 1.07327,1.07328 2.33732,1.84501 3.6836,2.31446 l -19.14844,16.5957 -3.44336,-3.44336 z" fill="#000000" fill-rule="evenodd" stroke-linecap="round" stroke-linejoin="round" stroke-miterlimit="3.3"/><path style="color:#000000;" d="m 901.41797,217.58203 a 1,1 0 0 0 -0.70703,0.29297 l -1.9668,1.9668 a 1,1 0 0 0 0,1.41406 1,1 0 0 0 1.41406,0 l 1.9668,-1.9668 a 1,1 0 0 0 0,-1.41406 1,1 0 0 0 -0.70703,-0.29297 z" fill="#000000" fill-rule="evenodd" stroke-linecap="round" stroke-linejoin="round" stroke-miterlimit="3.3"/></g></svg>