<svg xmlns="http://www.w3.org/2000/svg" xmlns:svg="http://www.w3.org/2000/svg" viewBox="0 0 64 80" version="1.1" x="0px" y="0px"><g transform="translate(-672,-672)"><path style="color:#000000;" d="M 683.27344,680 C 681.47712,680 680,681.47712 680,683.27344 v 41.45312 c 0,1.79631 1.47712,3.27344 3.27344,3.27344 h 41.45312 C 726.52288,728 728,726.52287 728,724.72656 V 683.27344 C 728,681.47712 726.52288,680 724.72656,680 Z m 0,2 h 41.45312 c 0.72293,0 1.27344,0.55051 1.27344,1.27344 v 41.45312 C 726,725.44947 725.44947,726 724.72656,726 H 683.27344 C 682.55052,726 682,725.44947 682,724.72656 V 683.27344 C 682,682.55051 682.55051,682 683.27344,682 Z" fill="#000000" fill-rule="evenodd" stroke-linecap="round" stroke-linejoin="round" stroke-miterlimit="3.3"/><path style="color:#000000;" d="m 715.97656,690 a 1.0001,1.0001 0 0 0 -0.17578,0.0195 l -17.0332,3.46875 a 1.0001,1.0001 0 0 0 -0.80078,0.98242 l 0.0254,14.90039 c -0.83598,-0.62836 -1.87225,-1.00195 -2.99219,-1.00195 -2.74958,0 -5,2.25042 -5,5 0,2.74958 2.25042,5 5,5 2.70235,0 4.92062,-2.17439 4.99609,-4.85937 a 1,1 0 0 0 0.004,-0.043 v -0.0918 -0.0137 l -0.0195,-11.8125 15.01758,-3.0586 -0.002,6.67579 c -0.83656,-0.62991 -1.87463,-1.00391 -2.99609,-1.00391 -2.74957,0 -5,2.25043 -5,5 0,2.74958 2.25043,4.99999 5,5 2.74958,0 5,-2.25042 5,-5 0,-0.0859 -0.002,-0.17096 -0.006,-0.25586 l 0.004,-11.58008 a 1,1 0 0 0 0,-0.13086 L 717,691 a 1.0001,1.0001 0 0 0 -1.02344,-1 z M 715,692.22461 l -0.002,4.22461 -15.02149,3.05859 -0.008,-4.22265 z m -3,13.9375 c 1.60852,0 2.90284,1.23649 2.99414,2.82031 v 0.36133 c -0.0923,1.58288 -1.38628,2.81836 -2.99414,2.81836 -1.66869,-10e-6 -3,-1.3313 -3,-3 0,-1.66869 1.33132,-3 3,-3 z m -17,4.20703 c 1.66609,0 2.99585,1.32715 3,2.99219 v 0.008 c 0,0.002 0,0.004 0,0.006 -0.003,1.66595 -1.33326,2.99414 -3,2.99414 -1.6687,0 -3,-1.3313 -3,-3 0,-1.6687 1.3313,-3 3,-3 z" fill="#000000" fill-rule="evenodd" stroke-linecap="round" stroke-linejoin="round" stroke-miterlimit="3.3"/></g></svg>