<?xml version="1.0" encoding="UTF-8"?>
<svg width="1200pt" height="1200pt" version="1.1" viewBox="0 0 1200 1200" xmlns="http://www.w3.org/2000/svg">
 <g>
  <path d="m600 393.6c-75.961 0-137.76 61.801-137.76 137.76 0 75.957 61.801 137.76 137.76 137.76s137.76-61.801 137.76-137.76-61.801-137.76-137.76-137.76zm0 239.52c-56.16 0-101.76-45.602-101.76-101.76s45.602-101.76 101.76-101.76 101.76 45.602 101.76 101.76c0 56.039-45.602 101.76-101.76 101.76z"/>
  <path d="m600 218.64c-210.24 0-381.36 171-381.36 381.36s171.12 381.36 381.36 381.36 381.36-171.12 381.36-381.36-171.12-381.36-381.36-381.36zm-210.72 654.6c45.602-71.762 125.28-116.04 210.72-116.04 85.078 0 165.12 44.398 210.72 116.04-58.32 45.121-131.4 72-210.72 72-79.32 0.12109-152.4-26.879-210.72-72zm449.04-23.637c-52.68-79.441-142.68-128.4-238.32-128.4-96 0-185.76 48.84-238.32 128.28-65.879-62.879-107.04-151.44-107.04-249.48 0-190.44 154.92-345.36 345.36-345.36 190.44 0 345.36 154.92 345.36 345.36 0 98.039-41.16 186.72-107.04 249.6z"/>
 </g>
</svg>
